<svg width="215" height="220" viewBox="0 0 215 220" fill="none" xmlns="http://www.w3.org/2000/svg">
<rect width="215" height="225" transform="translate(0 -5)" fill="#111218"/>
<rect x="48" y="145" width="151" height="8" fill="#1F222D"/>
<rect x="48" y="130" width="31" height="8" fill="#1F222D"/>
<rect x="16" y="130" width="24" height="23" fill="#1F222D"/>
<rect x="48" y="100" width="151" height="8" fill="#1F222D"/>
<rect x="48" y="85" width="31" height="8" fill="#1F222D"/>
<rect x="16" y="85" width="24" height="23" fill="#1F222D"/>
<rect x="48" y="55" width="151" height="8" fill="#1F222D"/>
<rect x="48" y="40" width="31" height="8" fill="#1F222D"/>
<rect x="16" y="40" width="24" height="23" fill="#1F222D"/>
<rect x="48" y="10" width="151" height="8" fill="#1F222D"/>
<rect x="48" y="-5" width="31" height="8" fill="#1F222D"/>
<rect x="16" y="-5" width="24" height="23" fill="#1F222D"/>
<rect x="16" y="180" width="183" height="27" fill="#1F222D"/>
<rect x="185" y="182" width="9" height="9" fill="#191B24"/>
<rect x="22" y="187" width="100" height="2" fill="#324152"/>
<rect x="22" y="192" width="91" height="2" fill="#324152"/>
<rect x="22" y="197" width="97" height="2" fill="#324152"/>
</svg>
