<svg width="24" height="24" viewBox="0 0 24 24" fill="none" xmlns="http://www.w3.org/2000/svg">
<path d="M19.9003 11C19.3003 11 18.9003 11.4 18.9003 12C18.9003 15.9 15.8003 19 11.9003 19H11.2003C11.0003 19 10.9003 19 10.7003 18.9C10.5003 18.9 10.4003 18.8 10.2003 18.8C10.1003 18.8 10.0003 18.7 9.90028 18.7C9.20028 18.5 8.50028 18.1 7.90028 17.7C7.80028 17.6 7.70028 17.6 7.70028 17.5C7.60028 17.4 7.50028 17.3 7.40028 17.3C7.20028 17.2 7.00028 17 6.90028 16.9L6.70028 16.7L8.50028 16.4C9.00028 16.3 9.40028 15.8 9.30028 15.2C9.20028 14.7 8.70028 14.3 8.10028 14.4L4.80028 15L4.00028 15.2C3.70028 15.2 3.50028 15.4 3.40028 15.6C3.30028 15.8 3.20028 16.1 3.20028 16.3L4.00028 20.5C4.10028 21 4.50028 21.3 5.00028 21.3H5.20028C5.70028 21.2 6.10028 20.7 6.00028 20.1L5.70028 18.4C5.90028 18.6 6.20028 18.8 6.40028 19H6.50028C6.60028 19.1 6.70028 19.2 6.80028 19.2C7.00028 19.4 7.20028 19.5 7.50028 19.6C7.70028 20 8.00028 20.1 8.30028 20.3H8.40028C8.50028 20.4 8.70028 20.4 8.90028 20.5C9.30028 20.6 9.70028 20.7 10.0003 20.8C10.2003 20.8 10.4003 20.9 10.6003 20.9H11.8003C16.8003 20.9 20.8003 16.9 20.8003 11.9C20.9003 11.4 20.4003 11 19.9003 11ZM4.00028 13C4.60028 13 5.00028 12.6 5.00028 12C5.00028 8.1 8.10028 5 12.0003 5H12.7003C12.9003 5 13.0003 5 13.2003 5.1C13.4003 5.1 13.5003 5.2 13.7003 5.2C13.8003 5.2 13.9003 5.3 14.0003 5.3C14.7003 5.5 15.4003 5.8 16.0003 6.3C16.1003 6.4 16.2003 6.4 16.3003 6.5C16.4003 6.6 16.5003 6.6 16.6003 6.7C16.7003 6.8 16.8003 7 17.0003 7.1L17.2003 7.3L15.4003 7.6C14.9003 7.7 14.5003 8.2 14.6003 8.8C14.7003 9.3 15.1003 9.6 15.6003 9.6H15.8003L20.0003 8.8C20.5003 8.7 20.9003 8.2 20.8003 7.6L20.0003 3.5C19.9003 3 19.4003 2.6 18.8003 2.7C18.3003 2.8 17.9003 3.3 18.0003 3.9L18.3003 5.6C18.1003 5.4 17.8003 5.1 17.6003 5H17.5003C17.4003 4.9 17.3003 4.8 17.2003 4.8C17.0003 4.6 16.8003 4.5 16.5003 4.3C16.2003 4.1 15.9003 4 15.6003 3.8H15.5003C15.4003 3.7 15.2003 3.7 15.0003 3.6C14.6003 3.5 14.2003 3.4 13.9003 3.3C13.7003 3.3 13.5003 3.2 13.3003 3.2H12.1003C7.10028 3.2 3.10028 7.2 3.10028 12.2C3.00028 12.6 3.40028 13 4.00028 13Z" fill="#1F222D"/>
</svg>
