<svg width="39" height="37" viewBox="0 0 39 37" fill="none" xmlns="http://www.w3.org/2000/svg">
<path d="M14.236 18.7621C13.677 15.6238 15.8571 8.50156 24.1304 8.50156C32.4037 8.50156 35.8137 18.142 34.6957 23.6105C33.5776 29.0791 31.5652 31.7847 28.267 35.055C27.6989 35.6183 39 29.2478 39 18.142C39 10.482 32.9019 4.69297 26.8695 3.20216C24.1304 2.52522 18.6518 2.52521 14.236 6.64072C12.313 8.43295 10.3785 14.9845 14.236 18.7621Z" fill="url(#paint0_linear_329_1046)"/>
<path d="M14.236 18.7621C13.677 15.6238 15.8571 8.50156 24.1304 8.50156C32.4037 8.50156 35.8137 18.142 34.6957 23.6105C33.5776 29.0791 31.5652 31.7847 28.267 35.055C27.6989 35.6183 39 29.2478 39 18.142C39 10.482 32.9019 4.69297 26.8695 3.20216C24.1304 2.52522 18.6518 2.52521 14.236 6.64072C12.313 8.43295 10.3785 14.9845 14.236 18.7621Z" fill="url(#paint1_linear_329_1046)"/>
<path d="M17.7161 12.0373C20.8176 11.4188 27.9167 13.4929 28.0611 21.8353C28.2055 30.1778 18.7075 33.7845 13.2664 32.7526C7.82536 31.7207 5.10785 29.7387 1.80815 26.47C1.23971 25.9069 7.75276 37.1914 18.7631 36.9975C26.3572 36.8638 31.9901 30.6137 33.3628 24.5049C33.9861 21.731 33.8905 16.2066 29.7333 11.8257C27.9229 9.9179 21.394 8.08162 17.7161 12.0373Z" fill="url(#paint2_linear_329_1046)"/>
<path d="M17.7161 12.0373C20.8176 11.4188 27.9167 13.4929 28.0611 21.8353C28.2055 30.1778 18.7075 33.7845 13.2664 32.7526C7.82536 31.7207 5.10785 29.7387 1.80815 26.47C1.23971 25.9069 7.75276 37.1914 18.7631 36.9975C26.3572 36.8638 31.9901 30.6137 33.3628 24.5049C33.9861 21.731 33.8905 16.2066 29.7333 11.8257C27.9229 9.9179 21.394 8.08162 17.7161 12.0373Z" fill="url(#paint3_linear_329_1046)"/>
<path d="M24.7199 15.565C25.441 18.6695 23.6334 25.8971 15.3715 26.3338C7.10954 26.7704 3.20395 17.3232 4.03664 11.8032C4.86933 6.28309 6.73862 3.47493 9.86254 0.0350882C10.4007 -0.557496 -0.554348 6.40083 0.0219765 17.4914C0.419483 25.1409 6.80962 30.6001 12.9111 31.7705C15.6816 32.3019 21.1527 32.0127 25.3489 27.6698C27.1763 25.7785 28.7681 19.1339 24.7199 15.565Z" fill="url(#paint4_linear_329_1046)"/>
<path d="M24.7199 15.565C25.441 18.6695 23.6334 25.8971 15.3715 26.3338C7.10954 26.7704 3.20395 17.3232 4.03664 11.8032C4.86933 6.28309 6.73862 3.47493 9.86254 0.0350882C10.4007 -0.557496 -0.554348 6.40083 0.0219765 17.4914C0.419483 25.1409 6.80962 30.6001 12.9111 31.7705C15.6816 32.3019 21.1527 32.0127 25.3489 27.6698C27.1763 25.7785 28.7681 19.1339 24.7199 15.565Z" fill="url(#paint5_linear_329_1046)"/>
<defs>
<linearGradient id="paint0_linear_329_1046" x1="19.5" y1="0" x2="19.5" y2="37" gradientUnits="userSpaceOnUse">
<stop stop-color="#66AFF4"/>
<stop offset="1" stop-color="#4B39C6"/>
</linearGradient>
<linearGradient id="paint1_linear_329_1046" x1="19.5" y1="0" x2="19.5" y2="37" gradientUnits="userSpaceOnUse">
<stop stop-color="#66AFF4"/>
<stop offset="1" stop-color="#4B39C6"/>
</linearGradient>
<linearGradient id="paint2_linear_329_1046" x1="19.5" y1="0" x2="19.5" y2="37" gradientUnits="userSpaceOnUse">
<stop stop-color="#66AFF4"/>
<stop offset="1" stop-color="#4B39C6"/>
</linearGradient>
<linearGradient id="paint3_linear_329_1046" x1="19.5" y1="0" x2="19.5" y2="37" gradientUnits="userSpaceOnUse">
<stop stop-color="#66AFF4"/>
<stop offset="1" stop-color="#4B39C6"/>
</linearGradient>
<linearGradient id="paint4_linear_329_1046" x1="19.5" y1="0" x2="19.5" y2="37" gradientUnits="userSpaceOnUse">
<stop stop-color="#66AFF4"/>
<stop offset="1" stop-color="#4B39C6"/>
</linearGradient>
<linearGradient id="paint5_linear_329_1046" x1="19.5" y1="0" x2="19.5" y2="37" gradientUnits="userSpaceOnUse">
<stop stop-color="#66AFF4"/>
<stop offset="1" stop-color="#4B39C6"/>
</linearGradient>
</defs>
</svg>
